<svg xmlns="http://www.w3.org/2000/svg" viewBox="0 0 448 392"><defs><style>.cls-1{fill:#212529;}</style></defs><title>Asset 1</title><g id="Layer_2" data-name="Layer 2"><g id="Layer_1-2" data-name="Layer 1"><path class="cls-1" d="M16,72H432a16,16,0,0,0,16-16V16A16,16,0,0,0,432,0H16A16,16,0,0,0,0,16V56A16,16,0,0,0,16,72Zm0,160H432a16,16,0,0,0,16-16V176a16,16,0,0,0-16-16H16A16,16,0,0,0,0,176v40A16,16,0,0,0,16,232Zm0,160H432a16,16,0,0,0,16-16V336a16,16,0,0,0-16-16H16A16,16,0,0,0,0,336v40A16,16,0,0,0,16,392Z"/></g></g></svg>