<svg xmlns="http://www.w3.org/2000/svg" width="1011" height="131" viewBox="0 0 1011 131">
  <defs>
    <style>
      .cls-1 {
        fill: #212529;
      }

      .cls-1, .cls-2 {
        fill-rule: evenodd;
      }

      .cls-2 {
        fill: #fff;
      }
    </style>
  </defs>
  <g id="Artboard_1" data-name="Artboard 1">
    <path id="_code_later_" data-name="&lt;code/later&gt;" class="cls-1" d="M236.007,340.636l-55.3,34.128v12.528l54.72,34.128,6.48-8.784L191.079,381.1l50.832-31.248ZM617.456,441L678.8,314.284l-9.647-4.608L607.664,436.684ZM1137,340.636l-5.9,9.216,50.83,31.248-50.83,31.392,6.48,8.928,54.72-34.128V374.908Z" transform="translate(-181 -310)"/>
    <path id="_code_later_2" data-name="&lt;code/later&gt;" class="cls-2" d="M305.126,410.62q-8.067,0-12.528-5.112t-4.464-17.064q0-23.76,17.136-23.76a29.864,29.864,0,0,1,17.136,5.76l9.792-13.68a41.173,41.173,0,0,0-12.672-7.272,45.908,45.908,0,0,0-15.264-2.376q-12.1,0-21.1,5.328a36.249,36.249,0,0,0-13.9,14.688,45.288,45.288,0,0,0-4.9,21.312,44.663,44.663,0,0,0,4.752,21.024,34.115,34.115,0,0,0,13.608,14.112q8.856,5.039,21.1,5.04a43.891,43.891,0,0,0,15.7-2.736A43.432,43.432,0,0,0,332.2,418.54l-10.08-14.4a47.064,47.064,0,0,1-8.64,4.824,21.767,21.767,0,0,1-8.352,1.656h0Zm78.91-63.5q-11.522,0-19.944,5.112a32.99,32.99,0,0,0-12.816,14.256q-4.394,9.146-4.392,21.384,0,19.3,9.792,30.024t27.36,10.728q17.568,0,27.36-10.8t9.792-30.1q0-18.576-9.864-29.592t-27.288-11.016h0Zm0,16.848q7.054,0,10.368,5.688t3.312,18.072q0,12.674-3.312,18.432t-10.368,5.76q-7.056,0-10.368-5.688t-3.312-18.36q0-12.528,3.312-18.216t10.368-5.688h0ZM480.8,316.876v37.44a22.968,22.968,0,0,0-17.28-7.2A26.136,26.136,0,0,0,447.4,352.3a33.02,33.02,0,0,0-10.656,14.4A55.469,55.469,0,0,0,433,387.724q0,19.008,7.128,29.952t20.952,10.944a25.165,25.165,0,0,0,12.384-2.952,26.049,26.049,0,0,0,8.784-7.848l1.152,8.352h20.16V319.324ZM469.571,363.82a11.756,11.756,0,0,1,6.12,1.584,18.776,18.776,0,0,1,5.112,4.752v32.976q-5.329,8.785-12.528,8.784-5.616,0-8.712-5.4t-3.1-18.648q0-12.382,3.456-18.216t9.648-5.832h0Zm73.871,30.816h49.536a67.282,67.282,0,0,0,.432-8.208q0-12.238-4.392-21.1A31.3,31.3,0,0,0,576.562,351.8a37.225,37.225,0,0,0-19.008-4.68q-11.664,0-20.088,5.4A34.653,34.653,0,0,0,524.65,367.2a48.051,48.051,0,0,0-4.392,20.808,47.219,47.219,0,0,0,4.536,21.24,32.972,32.972,0,0,0,13.464,14.256q8.926,5.109,21.744,5.112a50.136,50.136,0,0,0,17.136-2.808,41.654,41.654,0,0,0,13.392-7.7l-9.072-12.384q-9.795,6.338-19.584,6.336-16.275,0-18.432-17.424h0Zm14.112-32.256q13.392,0,13.68,18.432h-28.08q0.719-9.359,4.464-13.9a12.236,12.236,0,0,1,9.936-4.536h0Z" transform="translate(-181 -310)"/>
    <path id="_code_later_3" data-name="&lt;code/later&gt;" class="cls-1" d="M730.5,319.756H695.071V329.4H718.4v77.472q0,9.65,6.12,15.264t16.344,5.616q10.8,0,18-3.888l-3.168-8.784a35.558,35.558,0,0,1-12.672,2.592q-12.528,0-12.528-10.224v-87.7Zm111.167,89.856V373.18q0-11.519-7.272-18t-21.1-6.48a74.812,74.812,0,0,0-24.912,4.752l3.312,9.216q11.087-3.888,19.728-3.888,8.781,0,13.392,3.528t4.608,11.592v6.192H818.19q-17.139,0-26.28,6.336t-9.144,18q0,10.658,6.552,16.992t17.928,6.336a33.021,33.021,0,0,0,13.608-2.736,26.194,26.194,0,0,0,10.152-7.92q2.733,9.361,13.824,10.8l3.024-8.64a8.5,8.5,0,0,1-4.752-3.1q-1.442-2.086-1.44-6.552h0Zm-31.392,9.072q-14.547,0-14.544-14.4,0-7.776,5.328-11.808t17.424-4.032h10.944v19.44A24.182,24.182,0,0,1,821,415.8a21.538,21.538,0,0,1-10.728,2.88h0Zm123.7,3.6-4.752-8.208a30.5,30.5,0,0,1-14.545,3.6q-7.634,0-11.088-3.168t-3.455-9.648V359.788h24.768l1.583-9.5H900.125V331.708l-12.1,1.44v17.136H870.6v9.5h17.425V405q0,10.226,6.767,16.488t18.721,6.264a43.779,43.779,0,0,0,11.016-1.44,30.891,30.891,0,0,0,9.432-4.032h0Zm35.71-29.808h50.975q0.285-3.166.29-6.48,0-17.28-8.28-27.288T989.979,348.7a30.156,30.156,0,0,0-17.424,5.112,32.931,32.931,0,0,0-11.52,14.112A49.32,49.32,0,0,0,957,388.3q0,18,9.144,28.728t25.56,10.728a42.9,42.9,0,0,0,13.753-2.3,40.56,40.56,0,0,0,12.17-6.48l-5.62-8.064A48.16,48.16,0,0,1,1002,416.02a30.627,30.627,0,0,1-10.293,1.656,20.6,20.6,0,0,1-15.48-6.336q-6.122-6.334-6.552-18.864h0Zm20.448-33.84q8.782,0,13.827,6.336t5.18,18.288H969.675q0.719-12.1,6.192-18.36a18.033,18.033,0,0,1,14.256-6.264h0ZM1097.69,348.7q-9.8,0-16.2,4.9t-11.02,14.688l-2.3-18h-21.02v9.36h11.95v57.168h-11.95v9.36h39.45v-9.36h-15.41V384.844q7.35-25.056,24.92-25.056h0.72V376.06h9.79l1.73-25.776a42.883,42.883,0,0,0-10.66-1.584h0Z" transform="translate(-181 -310)"/>
  </g>
</svg>
