<svg xmlns="http://www.w3.org/2000/svg" xmlns:xlink="http://www.w3.org/1999/xlink" viewBox="0 0 826.92 803"><defs><style>.cls-1{isolation:isolate;}.cls-2{fill:#b7b7b7;}.cls-3{fill:#aaa;}.cls-4{fill:#ccc;}.cls-5{fill:#e5e5e5;}.cls-6{fill:#f4f4f4;}.cls-7{fill:#d8d8d8;}.cls-8{fill:#a3a3a3;}.cls-9{fill:#878787;}.cls-10{fill:#cecece;}.cls-11{fill:#969696;}.cls-12{fill:#757575;}.cls-13{opacity:0.67;mix-blend-mode:multiply;fill:url(#linear-gradient);}.cls-14{opacity:0.76;}.cls-15{fill:#f5f5f5;}.cls-16{fill:#cfcfcf;}.cls-17{fill:#fff;}.cls-18{fill:#b3b3b3;}</style><linearGradient id="linear-gradient" x1="583.3" y1="667.4" x2="302.89" y2="-26.64" gradientUnits="userSpaceOnUse"><stop offset="0.01" stop-color="#be1d77"/><stop offset="0.38" stop-color="#c32471" stop-opacity="0.86"/><stop offset="0.98" stop-color="#c36" stop-opacity="0.6"/></linearGradient></defs><title>Asset 1</title><g class="cls-1"><g id="Layer_2" data-name="Layer 2"><g id="Layer_1-2" data-name="Layer 1"><polygon class="cls-2" points="522.73 437.01 615.35 358.6 508 308.08 522.73 437.01"/><polygon class="cls-2" points="615.35 184.94 455.9 130.74 632.19 285.45 615.35 184.94"/><polygon class="cls-3" points="615.35 358.6 632.19 285.45 508 308.08 615.35 358.6"/><polygon class="cls-4" points="421.7 233.36 373.81 340.71 508 308.08 421.7 233.36"/><polygon class="cls-4" points="206.47 405.43 373.81 340.71 304.35 240.72 206.47 405.43"/><polygon class="cls-4" points="414.07 488.05 522.73 437.01 421.96 413.33 414.07 488.05"/><polygon class="cls-5" points="508 308.08 632.19 285.45 421.7 233.36 508 308.08"/><polygon class="cls-6" points="395.91 105.48 290.14 148.11 304.35 240.72 395.91 105.48"/><polygon class="cls-4" points="290.14 148.11 228.57 97.59 304.35 240.72 290.14 148.11"/><polygon class="cls-4" points="632.19 285.45 455.9 130.74 421.7 233.36 632.19 285.45"/><polygon class="cls-7" points="455.9 130.74 395.91 105.48 421.7 233.36 455.9 130.74"/><polygon class="cls-5" points="421.7 233.36 395.91 105.48 304.35 240.72 421.7 233.36"/><polygon class="cls-6" points="567.99 56.2 455.9 130.74 579.56 131.27 567.99 56.2"/><polygon class="cls-8" points="689.07 199.22 699.02 148.11 615.35 184.94 689.07 199.22"/><polygon class="cls-2" points="615.35 184.94 699.02 148.11 579.56 131.27 615.35 184.94"/><polygon class="cls-3" points="632.19 285.45 689.54 198.63 615.35 184.94 632.19 285.45"/><polygon class="cls-9" points="356.44 759.06 388.02 714.85 283.82 688.02 356.44 759.06"/><polygon class="cls-6" points="42.29 78.65 89.65 285.45 228.57 97.59 42.29 78.65"/><polygon class="cls-2" points="699.02 148.11 689.54 37.6 619.56 76.54 699.02 148.11"/><polygon class="cls-5" points="619.56 76.54 567.99 56.2 579.56 131.27 619.56 76.54"/><polygon class="cls-4" points="579.56 131.27 699.02 148.11 619.56 76.54 579.56 131.27"/><polygon class="cls-4" points="89.65 285.45 149.64 329.66 304.35 240.72 89.65 285.45"/><polygon class="cls-5" points="689.54 37.6 567.99 56.2 619.56 76.54 689.54 37.6"/><polygon class="cls-5" points="579.56 131.27 455.9 130.74 615.35 184.94 579.56 131.27"/><polygon class="cls-10" points="373.81 340.71 250.67 485.94 421.96 413.33 373.81 340.71"/><polygon class="cls-11" points="283.82 688.02 388.02 714.85 392.23 663.81 283.82 688.02"/><polygon class="cls-3" points="414.07 488.05 283.82 688.02 392.23 663.81 414.07 488.05"/><polygon class="cls-12" points="388.02 714.85 455.9 678.54 392.23 663.81 388.02 714.85"/><polygon class="cls-11" points="392.23 663.81 455.9 678.54 414.07 488.05 392.23 663.81"/><polygon class="cls-9" points="455.9 678.54 514.31 503.31 414.07 488.05 455.9 678.54"/><polygon class="cls-9" points="514.31 503.31 593.25 437.01 522.73 437.01 514.31 503.31"/><polygon class="cls-9" points="593.25 437.01 785.84 353.34 615.35 358.6 593.25 437.01"/><polygon class="cls-10" points="250.67 485.94 283.82 688.02 414.07 488.05 250.67 485.94"/><polygon class="cls-4" points="121.22 416.48 250.67 485.94 206.47 405.43 121.22 416.48"/><polygon class="cls-6" points="149.64 329.66 121.22 416.48 206.47 405.43 149.64 329.66"/><polygon class="cls-3" points="785.84 353.34 785.84 287.03 632.19 285.45 785.84 353.34"/><polygon class="cls-2" points="632.19 285.45 785.84 287.03 689.54 198.63 632.19 285.45"/><polygon class="cls-5" points="228.57 97.59 89.65 285.45 304.35 240.72 228.57 97.59"/><polygon class="cls-5" points="304.35 240.72 149.64 329.66 206.47 405.43 304.35 240.72"/><polygon class="cls-5" points="206.47 405.43 250.67 485.94 373.81 340.71 206.47 405.43"/><polygon class="cls-11" points="615.35 358.6 785.84 353.34 632.19 285.45 615.35 358.6"/><polygon class="cls-2" points="421.96 413.33 250.67 485.94 414.07 488.05 421.96 413.33"/><polygon class="cls-3" points="414.07 488.05 514.31 503.31 522.73 437.01 414.07 488.05"/><polygon class="cls-3" points="522.73 437.01 593.25 437.01 615.35 358.6 522.73 437.01"/><polygon class="cls-2" points="304.35 240.72 373.81 340.71 421.7 233.36 304.35 240.72"/><polygon class="cls-7" points="373.81 340.71 421.96 413.33 508 308.08 373.81 340.71"/><polygon class="cls-4" points="421.96 413.33 522.73 437.01 508 308.08 421.96 413.33"/><polygon class="cls-13" points="689.54 198.63 689.2 198.56 699.02 148.11 689.54 37.6 567.99 56.2 455.9 130.74 395.91 105.48 290.14 148.11 228.57 97.59 42.29 78.65 89.65 285.45 149.64 329.66 121.22 416.48 250.67 485.94 283.82 688.02 356.44 759.06 388.02 714.85 455.9 678.54 514.31 503.31 593.25 437.01 785.84 353.34 785.84 287.03 689.54 198.63"/><g class="cls-14"><path class="cls-15" d="M532.52,445.31l-.08-.73L516.18,302.36l.64.3,118.39,55.71-.47.4ZM517.13,303.68l16,140.07,100.62-85.19Z"/><path class="cls-15" d="M653.54,279.21,457.72,107.36l177.12,60.2,0,.24ZM461.23,109.38,652.39,277.16l-18.26-109Z"/><path class="cls-15" d="M634.76,359l-.44-.21-119-56,1.21-.22,136.9-24.94-.13.58ZM517.94,303.19,634.21,357.9l18.24-79.22Z"/><path class="cls-15" d="M368.68,339.4l.33-.73,52.77-118.32.41.35,95.3,82.52-.74.18Zm53.39-117.75-52,116.61,145.77-35.44Z"/><path class="cls-15" d="M184.77,410.65,293.1,228.36l.35.5L370,339l-.47.18ZM293.15,229.81,186.61,409.09l182.15-70.45Z"/><path class="cls-15" d="M413.09,501.21l.07-.69,8.71-82.47.44.1L534,444.41l-1,.48ZM422.56,419,414,499.9l117.61-55.25Z"/><path class="cls-15" d="M516.54,303.44l-.14-.12-96-83.1,1.59.4,232.83,57.62Zm-93.11-81.66,93.34,80.82,134.32-24.48Z"/><path class="cls-15" d="M292.89,230.14l-.16-1-15.64-102,.29-.12,117.3-47.27ZM278,127.68,293.36,228,392.57,81.49Z"/><path class="cls-15" d="M293.87,231.34l-1.09-2.07L208.68,70.43l69.22,56.79,0,.15ZM211.22,73.53l81.16,153.31-15.22-99.2Z"/><path class="cls-15" d="M654.45,279l-1.58-.39L421.42,221.28l.14-.4,37.73-113.2.44.39Zm-232-58.24,229.05,56.69L459.66,109.05Z"/><path class="cls-15" d="M421.83,222.53l-.29-1.45L393.09,80,460,108.15l-.11.34ZM394.16,81.3,422,219.47l37-110.88Z"/><path class="cls-15" d="M292.35,229.53l.45-.67,101-149.22.18.92L422.4,221.37l-.45,0ZM393.43,81.64l-99.53,147,127.55-8Z"/><path class="cls-15" d="M595.67,109.34h-.46l-137-.58,1.08-.72L582.8,25.88l.09.61ZM460.77,108l134,.57L582.2,27.22Z"/><path class="cls-15" d="M715.72,184l-.39-.08-82.39-16.78,1.16-.5,92.75-39.87Zm-80.15-17.13,79.53,16.19,10.69-55Z"/><path class="cls-15" d="M634.34,168.35l-.18-.27-39.77-59.65,133.36,18.8ZM596,109.46l38.6,57.91,90.27-39.74Z"/><path class="cls-15" d="M652.74,279.24l-.16-1L634,167.37l82.58,15.23-.32.5ZM635,168.35l18.22,108.78,62.08-94Z"/><path class="cls-15" d="M350.36,798.62l-.33-.32-80.76-79,1.43.36,114.92,29.6-.34.47Zm-78.43-77.83,78.33,76.63,34-47.68Z"/><path class="cls-15" d="M57.27,279.11,5,50.74l.55,0L210.68,71.66l-.41.56ZM6,51.63,57.66,277.26l151.56-205Z"/><path class="cls-15" d="M726.8,128.39,638.43,48.8l.48-.27,77.36-43,.05.61ZM639.78,49l86.06,77.52L715.58,6.77Z"/><path class="cls-15" d="M595,110l-.15-.94L582,25.93,639.72,48.7ZM583,27.17l12.45,80.77,43-58.89Z"/><path class="cls-15" d="M727.55,128l-1.28-.18L594.5,109.24l.39-.53L639,48.29l.33.29ZM595.92,108.64,725.1,126.86l-85.93-77.4Z"/><path class="cls-15" d="M123.28,327.17l-.2-.15L56.52,278l.86-.18,238.09-49.6ZM58.41,278.39l64.93,47.84L290.78,230Z"/><path class="cls-15" d="M639.13,49.31l-.17-.07L581,26.38l1.44-.22L718,5.41ZM584,26.72l55.08,21.72L713.82,6.85Z"/><path class="cls-15" d="M635.46,168.61,457.06,108h2.42l135.94.58ZM461.89,108.77l171.62,58.34L595,109.34Z"/><path class="cls-15" d="M232.84,499.26l1.07-1.27,135.5-159.82.29.44,53.11,80.11-.44.18ZM369.33,339.49,235.59,497.24l186-78.88Z"/><path class="cls-15" d="M385.32,750l-.46-.12L268.91,720,390,693l0,.54Zm-113-29.93L384.61,749l4.54-55Z"/><path class="cls-15" d="M269.74,720.64l.53-.81L414.16,498.91l-.21,1.7-24,193.19-.27.06ZM413,502.21,271.46,719.45l117.77-26.3Z"/><path class="cls-15" d="M384.51,750.19l.06-.72L389.23,693l.44.1,70.92,16.41ZM389.94,694l-4.52,54.85,72.94-39Z"/><path class="cls-15" d="M460,710.17l-.6-.14-70.24-16.25,0-.36,24.26-195.19Zm-70-17,68.94,16-45.3-206.23Z"/><path class="cls-15" d="M459.4,711.13l-.31-1.4-46-209.65L524.11,517ZM414.06,501l45.49,207.13,63.52-190.54Z"/><path class="cls-15" d="M523.07,518.26l9.41-74.13h78.83Zm10.11-73.34-9.08,71.44,85-71.44Z"/><path class="cls-15" d="M609.62,445.22l.23-.8,24.33-86.34h.29l189.2-5.84Zm25.17-86.37-24,85,208.75-90.69Z"/><path class="cls-15" d="M270.37,721.11l-.16-1L233.74,497.85l180.54,2.32ZM234.68,498.65,270.82,719l142-218Z"/><path class="cls-15" d="M235.2,499.23,234,498.6,90.85,421.77l1.22-.16,93.84-12.16.13.23Zm-141.81-77,139.83,75-47.74-87Z"/><path class="cls-15" d="M91.55,422.47l.19-.59,31.43-96,.46.61,62.78,83.72-.67.08Zm31.9-94.93-30.76,94,92.28-12Z"/><path class="cls-15" d="M822,353.3l-.55-.25L651.05,277.77l1.92,0,169,1.73ZM654.88,278.6l166.35,73.49V280.31Z"/><path class="cls-15" d="M822.65,280.32h-1l-169.38-1.74.4-.61,63.21-95.68.34.31Zm-169-2.53,166.91,1.72-104.6-96Z"/><path class="cls-15" d="M56.53,278.78l.62-.83L210,71.24l.29.56,83.42,157.57-.52.1ZM209.9,72.72,58.4,277.58l234.13-48.77Z"/><path class="cls-15" d="M185.73,410.58l-.35-.47-62.65-83.53.38-.22L294.23,228Zm-61.84-83.76,61.76,82.34L292,230.18Z"/><path class="cls-15" d="M234.14,498.94l-.27-.5-48.74-88.77.42-.16L370.67,337.9l-1,1.19Zm-47.88-88.86,48,87.47L368.06,339.76Z"/><path class="cls-15" d="M634,358.88l.11-.5,18.59-80.75.44.19L823.37,353l-1.73.06Zm19.25-80.14L635,358.06l184.9-5.71Z"/><path class="cls-15" d="M413.91,501h-.36l-181.22-2.33,190.35-80.71-.07.67Zm-177.82-3.07,177.11,2.28,8.56-81Z"/><path class="cls-15" d="M523.93,517.76l-.4-.06-111.32-17,1.18-.55,119.92-56.33-.09.71Zm-109-17.4,108.35,16.5,9.1-71.67Z"/><path class="cls-15" d="M610.52,444.92H531.75l.82-.69,102.65-86.9-.36,1.24Zm-76.62-.79h76l23.82-84.53Z"/><path class="cls-15" d="M369.44,339.63l-.4-.58L292.4,228.73l.7,0,129.45-8.13-.26.6ZM293.85,229.44,369.29,338l52-116.6Z"/><path class="cls-15" d="M422.18,419.2l-.29-.44-53.16-80.18,149-36.22ZM370,339.08l52.25,78.79L515.6,303.68Z"/><path class="cls-15" d="M533.28,445l-.54-.13L421.51,418.78,516.94,302l.11.93ZM422.92,418.3,532.37,444l-16-140Z"/><polygon class="cls-16" points="209.95 80.01 204.66 76.7 204.66 71.06 209.95 74.37 209.95 80.01"/><polygon class="cls-17" points="209.95 80.01 215.25 76.7 215.25 71.06 209.95 74.37 209.95 80.01"/><polygon class="cls-18" points="209.95 67.75 204.66 71.06 209.95 74.37 215.25 71.06 209.95 67.75"/><polygon class="cls-16" points="277.53 132.83 272.23 129.52 272.23 123.88 277.53 127.19 277.53 132.83"/><polygon class="cls-17" points="277.53 132.83 282.82 129.52 282.82 123.88 277.53 127.19 277.53 132.83"/><polygon class="cls-18" points="277.53 120.57 272.23 123.88 277.53 127.19 282.82 123.88 277.53 120.57"/><polygon class="cls-16" points="293.13 235.22 287.83 231.91 287.83 226.26 293.13 229.58 293.13 235.22"/><polygon class="cls-17" points="293.13 235.22 298.42 231.91 298.42 226.26 293.13 229.58 293.13 235.22"/><polygon class="cls-18" points="293.13 222.95 287.83 226.26 293.13 229.58 298.42 226.26 293.13 222.95"/><polygon class="cls-16" points="57.47 284.02 52.17 280.71 52.17 275.07 57.47 278.38 57.47 284.02"/><polygon class="cls-17" points="57.47 284.02 62.76 280.71 62.76 275.07 57.47 278.38 57.47 284.02"/><polygon class="cls-18" points="57.47 271.76 52.17 275.07 57.47 278.38 62.76 275.07 57.47 271.76"/><polygon class="cls-16" points="5.3 57.32 0 54.01 0 48.37 5.3 51.68 5.3 57.32"/><polygon class="cls-17" points="5.3 57.32 10.59 54.01 10.59 48.37 5.3 51.68 5.3 57.32"/><polygon class="cls-18" points="5.3 45.05 0 48.37 5.3 51.68 10.59 48.37 5.3 45.05"/><polygon class="cls-16" points="123.31 332.83 118.02 329.52 118.02 323.88 123.31 327.19 123.31 332.83"/><polygon class="cls-17" points="123.31 332.83 128.61 329.52 128.61 323.88 123.31 327.19 123.31 332.83"/><polygon class="cls-18" points="123.31 320.57 118.02 323.88 123.31 327.19 128.61 323.88 123.31 320.57"/><polygon class="cls-16" points="92.12 428.4 86.83 425.09 86.83 419.45 92.12 422.76 92.12 428.4"/><polygon class="cls-17" points="92.12 428.4 97.42 425.09 97.42 419.45 92.12 422.76 92.12 428.4"/><polygon class="cls-18" points="92.12 416.14 86.83 419.45 92.12 422.76 97.42 419.45 92.12 416.14"/><polygon class="cls-16" points="185.95 416.8 180.65 413.48 180.65 407.84 185.95 411.15 185.95 416.8"/><polygon class="cls-17" points="185.95 416.8 191.24 413.48 191.24 407.84 185.95 411.15 185.95 416.8"/><polygon class="cls-18" points="185.95 404.53 180.65 407.84 185.95 411.15 191.24 407.84 185.95 404.53"/><polygon class="cls-16" points="234.21 503.89 228.91 500.57 228.91 494.93 234.21 498.24 234.21 503.89"/><polygon class="cls-17" points="234.21 503.89 239.51 500.57 239.51 494.93 234.21 498.24 234.21 503.89"/><polygon class="cls-18" points="234.21 491.62 228.91 494.93 234.21 498.24 239.51 494.93 234.21 491.62"/><polygon class="cls-16" points="421.7 425.58 416.4 422.27 416.4 416.63 421.7 419.94 421.7 425.58"/><polygon class="cls-17" points="421.7 425.58 426.99 422.27 426.99 416.63 421.7 419.94 421.7 425.58"/><polygon class="cls-18" points="421.7 413.32 416.4 416.63 421.7 419.94 426.99 416.63 421.7 413.32"/><polygon class="cls-16" points="369.37 344.96 364.07 341.65 364.07 336.01 369.37 339.32 369.37 344.96"/><polygon class="cls-17" points="369.37 344.96 374.66 341.65 374.66 336.01 369.37 339.32 369.37 344.96"/><polygon class="cls-18" points="369.37 332.7 364.07 336.01 369.37 339.32 374.66 336.01 369.37 332.7"/><polygon class="cls-16" points="516.65 309.15 511.36 305.84 511.36 300.2 516.65 303.51 516.65 309.15"/><polygon class="cls-17" points="516.65 309.15 521.95 305.84 521.95 300.2 516.65 303.51 516.65 309.15"/><polygon class="cls-18" points="516.65 296.88 511.36 300.2 516.65 303.51 521.95 300.2 516.65 296.88"/><polygon class="cls-16" points="422.22 227.13 416.92 223.82 416.92 218.18 422.22 221.49 422.22 227.13"/><polygon class="cls-17" points="422.22 227.13 427.51 223.82 427.51 218.18 422.22 221.49 422.22 227.13"/><polygon class="cls-18" points="422.22 214.87 416.92 218.18 422.22 221.49 427.51 218.18 422.22 214.87"/><polygon class="cls-16" points="393.63 86.78 388.33 83.46 388.33 77.82 393.63 81.14 393.63 86.78"/><polygon class="cls-17" points="393.63 86.78 398.92 83.46 398.92 77.82 393.63 81.14 393.63 86.78"/><polygon class="cls-18" points="393.63 74.51 388.33 77.82 393.63 81.14 398.92 77.82 393.63 74.51"/><polygon class="cls-16" points="459.47 114.5 454.18 111.19 454.18 105.55 459.47 108.86 459.47 114.5"/><polygon class="cls-17" points="459.47 114.5 464.77 111.19 464.77 105.55 459.47 108.86 459.47 114.5"/><polygon class="cls-18" points="459.47 102.23 454.18 105.55 459.47 108.86 464.77 105.55 459.47 102.23"/><polygon class="cls-16" points="595.21 114.5 589.91 111.19 589.91 105.55 595.21 108.86 595.21 114.5"/><polygon class="cls-17" points="595.21 114.5 600.5 111.19 600.5 105.55 595.21 108.86 595.21 114.5"/><polygon class="cls-18" points="595.21 102.23 589.91 105.55 595.21 108.86 600.5 105.55 595.21 102.23"/><polygon class="cls-16" points="634.49 173.99 629.19 170.68 629.19 165.04 634.49 168.35 634.49 173.99"/><polygon class="cls-17" points="634.49 173.99 639.78 170.68 639.78 165.04 634.49 168.35 634.49 173.99"/><polygon class="cls-18" points="634.49 161.73 629.19 165.04 634.49 168.35 639.78 165.04 634.49 161.73"/><polygon class="cls-16" points="726.32 133.11 721.03 129.8 721.03 124.16 726.32 127.47 726.32 133.11"/><polygon class="cls-17" points="726.32 133.11 731.62 129.8 731.62 124.16 726.32 127.47 726.32 133.11"/><polygon class="cls-18" points="726.32 120.85 721.03 124.16 726.32 127.47 731.62 124.16 726.32 120.85"/><polygon class="cls-16" points="639.11 55.01 633.81 51.7 633.81 46.05 639.11 49.37 639.11 55.01"/><polygon class="cls-17" points="639.11 55.01 644.4 51.7 644.4 46.05 639.11 49.37 639.11 55.01"/><polygon class="cls-18" points="639.11 42.74 633.81 46.05 639.11 49.37 644.4 46.05 639.11 42.74"/><polygon class="cls-16" points="715.93 12.27 710.63 8.95 710.63 3.31 715.93 6.62 715.93 12.27"/><polygon class="cls-17" points="715.93 12.27 721.22 8.95 721.22 3.31 715.93 6.62 715.93 12.27"/><polygon class="cls-18" points="715.93 0 710.63 3.31 715.93 6.62 721.22 3.31 715.93 0"/><polygon class="cls-16" points="582.5 33.64 577.21 30.32 577.21 24.68 582.5 28 582.5 33.64"/><polygon class="cls-17" points="582.5 33.64 587.8 30.32 587.8 24.68 582.5 28 582.5 33.64"/><polygon class="cls-18" points="582.5 21.37 577.21 24.68 582.5 28 587.8 24.68 582.5 21.37"/><polygon class="cls-16" points="715.03 189.01 709.73 185.7 709.73 180.06 715.03 183.37 715.03 189.01"/><polygon class="cls-17" points="715.03 189.01 720.32 185.7 720.32 180.06 715.03 183.37 715.03 189.01"/><polygon class="cls-18" points="715.03 176.75 709.73 180.06 715.03 183.37 720.32 180.06 715.03 176.75"/><polygon class="cls-16" points="821.63 285.97 816.33 282.66 816.33 277.02 821.63 280.33 821.63 285.97"/><polygon class="cls-17" points="821.63 285.97 826.92 282.66 826.92 277.02 821.63 280.33 821.63 285.97"/><polygon class="cls-18" points="821.63 273.7 816.33 277.02 821.63 280.33 826.92 277.02 821.63 273.7"/><polygon class="cls-16" points="821.63 358.82 816.33 355.51 816.33 349.87 821.63 353.18 821.63 358.82"/><polygon class="cls-17" points="821.63 358.82 826.92 355.51 826.92 349.87 821.63 353.18 821.63 358.82"/><polygon class="cls-18" points="821.63 346.56 816.33 349.87 821.63 353.18 826.92 349.87 821.63 346.56"/><polygon class="cls-16" points="652.97 284.31 647.67 281 647.67 275.36 652.97 278.67 652.97 284.31"/><polygon class="cls-17" points="652.97 284.31 658.26 281 658.26 275.36 652.97 278.67 652.97 284.31"/><polygon class="cls-18" points="652.97 272.05 647.67 275.36 652.97 278.67 658.26 275.36 652.97 272.05"/><polygon class="cls-16" points="634.49 364.96 629.19 361.65 629.19 356 634.49 359.31 634.49 364.96"/><polygon class="cls-17" points="634.49 364.96 639.78 361.65 639.78 356 634.49 359.31 634.49 364.96"/><polygon class="cls-18" points="634.49 352.69 629.19 356 634.49 359.31 639.78 356 634.49 352.69"/><polygon class="cls-16" points="610.23 450.66 604.93 447.35 604.93 441.71 610.23 445.02 610.23 450.66"/><polygon class="cls-17" points="610.23 450.66 615.52 447.35 615.52 441.71 610.23 445.02 610.23 450.66"/><polygon class="cls-18" points="610.23 438.4 604.93 441.71 610.23 445.02 615.52 441.71 610.23 438.4"/><polygon class="cls-16" points="531.55 450.66 526.26 447.35 526.26 441.71 531.55 445.02 531.55 450.66"/><polygon class="cls-17" points="531.55 450.66 536.85 447.35 536.85 441.71 531.55 445.02 531.55 450.66"/><polygon class="cls-18" points="531.55 438.4 526.26 441.71 531.55 445.02 536.85 441.71 531.55 438.4"/><polygon class="cls-16" points="522.73 523.44 517.44 520.13 517.44 514.49 522.73 517.8 522.73 523.44"/><polygon class="cls-17" points="522.73 523.44 528.03 520.13 528.03 514.49 522.73 517.8 522.73 523.44"/><polygon class="cls-18" points="522.73 511.17 517.44 514.49 522.73 517.8 528.03 514.49 522.73 511.17"/><polygon class="cls-16" points="459.47 715.78 454.18 712.47 454.18 706.83 459.47 710.14 459.47 715.78"/><polygon class="cls-17" points="459.47 715.78 464.77 712.47 464.77 706.83 459.47 710.14 459.47 715.78"/><polygon class="cls-18" points="459.47 703.51 454.18 706.83 459.47 710.14 464.77 706.83 459.47 703.51"/><polygon class="cls-16" points="389.58 699.61 384.29 696.29 384.29 690.65 389.58 693.97 389.58 699.61"/><polygon class="cls-17" points="389.58 699.61 394.88 696.29 394.88 690.65 389.58 693.97 389.58 699.61"/><polygon class="cls-18" points="389.58 687.34 384.29 690.65 389.58 693.97 394.88 690.65 389.58 687.34"/><polygon class="cls-16" points="384.96 755.63 379.67 752.32 379.67 746.68 384.96 749.99 384.96 755.63"/><polygon class="cls-17" points="384.96 755.63 390.26 752.32 390.26 746.68 384.96 749.99 384.96 755.63"/><polygon class="cls-18" points="384.96 743.37 379.67 746.68 384.96 749.99 390.26 746.68 384.96 743.37"/><polygon class="cls-16" points="350.9 803 345.61 799.69 345.61 794.05 350.9 797.36 350.9 803"/><polygon class="cls-17" points="350.9 803 356.2 799.69 356.2 794.05 350.9 797.36 350.9 803"/><polygon class="cls-18" points="350.9 790.73 345.61 794.05 350.9 797.36 356.2 794.05 350.9 790.73"/><polygon class="cls-16" points="271.23 725.76 265.93 722.45 265.93 716.81 271.23 720.12 271.23 725.76"/><polygon class="cls-17" points="271.23 725.76 276.52 722.45 276.52 716.81 271.23 720.12 271.23 725.76"/><polygon class="cls-18" points="271.23 713.5 265.93 716.81 271.23 720.12 276.52 716.81 271.23 713.5"/><polygon class="cls-16" points="413.55 506.69 408.26 503.38 408.26 497.74 413.55 501.05 413.55 506.69"/><polygon class="cls-17" points="413.55 506.69 418.85 503.38 418.85 497.74 413.55 501.05 413.55 506.69"/><polygon class="cls-18" points="413.55 494.42 408.26 497.74 413.55 501.05 418.85 497.74 413.55 494.42"/></g></g></g></g></svg>